<svg width="2523" height="489" viewBox="0 0 2523 489" fill="none" xmlns="http://www.w3.org/2000/svg">
<path d="M152.098 219.913C147.214 217.877 142.81 214.844 139.168 211.008L125.653 233.417C130.115 236.812 140.629 240.716 140.629 240.716C148.63 243.758 157.126 245.292 165.686 245.242C174.04 245.324 182.322 243.684 190.013 240.424C197.524 237.362 204.28 232.705 209.811 226.775V317.358H231.727V171.374H209.811V178.673C209.893 184.89 208.854 191.072 206.742 196.921C204.757 202.154 201.752 206.943 197.903 211.008C194.179 214.903 189.706 218.007 184.753 220.132C179.679 222.222 174.242 223.288 168.754 223.271C163.035 223.261 157.374 222.12 152.098 219.913Z" fill="#9F6402"/>
<path d="M202.359 324.657C186.466 324.657 170.929 319.948 157.714 311.126C144.499 302.303 134.199 289.763 128.117 275.092C122.035 260.421 120.443 244.277 123.544 228.702C126.645 213.127 134.298 198.82 145.537 187.591C156.775 176.362 171.094 168.715 186.682 165.617C202.27 162.519 218.427 164.109 233.111 170.186C247.795 176.263 260.345 186.554 269.175 199.758C278.005 212.962 282.718 228.486 282.718 244.366C282.718 265.66 274.252 286.083 259.181 301.14C244.111 316.198 223.672 324.657 202.359 324.657ZM202.359 185.972C190.8 185.972 179.501 189.397 169.89 195.813C160.279 202.229 152.788 211.349 148.365 222.019C143.941 232.689 142.784 244.431 145.039 255.758C147.294 267.085 152.86 277.49 161.034 285.656C169.207 293.823 179.621 299.384 190.957 301.637C202.294 303.891 214.045 302.734 224.724 298.315C235.403 293.895 244.531 286.41 250.952 276.808C257.374 267.205 260.802 255.915 260.802 244.366C260.802 228.879 254.645 214.026 243.684 203.075C232.724 192.124 217.859 185.972 202.359 185.972Z" fill="#9F6402"/>
<path d="M370.394 267.754C370.394 280.342 374.066 290.458 381.409 298.102C388.903 305.745 398.119 309.566 409.06 309.566C419.85 309.566 428.992 305.745 436.485 298.102C444.128 290.458 447.95 280.342 447.95 267.754V170.64H471.554V328H447.95V312.264C442.855 317.959 436.71 322.455 429.516 325.752C422.323 329.049 414.68 330.698 406.587 330.698C402.391 330.698 398.269 330.323 394.223 329.574C390.326 328.824 386.58 327.775 382.983 326.426C379.386 324.928 375.939 323.129 372.642 321.031C369.495 318.933 366.572 316.535 363.875 313.838C361.177 311.14 358.779 308.143 356.681 304.846C354.583 301.549 352.785 298.027 351.286 294.28C349.787 290.533 348.663 286.562 347.914 282.366C347.165 278.019 346.79 273.523 346.79 268.878V170.64H370.394V267.754Z" fill="white"/>
<path d="M488.92 328V170.64H511.625V227.964C516.72 222.719 522.79 218.597 529.833 215.6C536.877 212.453 544.371 210.879 552.313 210.879C556.06 210.879 559.657 211.254 563.104 212.003C566.701 212.603 570.148 213.502 573.445 214.701C576.742 215.9 579.889 217.398 582.886 219.197C585.884 220.845 588.656 222.794 591.204 225.042C593.901 227.14 596.299 229.538 598.397 232.235C600.645 234.783 602.594 237.555 604.242 240.553C606.041 243.55 607.539 246.697 608.738 249.994C610.087 253.142 611.061 256.514 611.661 260.11C612.26 263.557 612.56 267.154 612.56 270.901C612.56 274.498 612.26 278.094 611.661 281.691C611.061 285.138 610.087 288.51 608.738 291.807C607.539 295.104 606.041 298.251 604.242 301.249C602.594 304.096 600.645 306.869 598.397 309.566C596.299 312.114 593.901 314.512 591.204 316.76C588.656 318.858 585.884 320.806 582.886 322.605C579.889 324.253 576.742 325.677 573.445 326.876C570.148 328.075 566.701 328.974 563.104 329.574C559.657 330.323 556.06 330.698 552.313 330.698C544.371 330.698 536.802 329.199 529.609 326.202C522.565 323.054 516.495 318.858 511.4 313.613V328H488.92ZM511.175 270.901C511.175 273.598 511.4 276.296 511.849 278.994C512.449 281.541 513.198 284.014 514.097 286.412C515.147 288.81 516.345 291.058 517.694 293.156C519.193 295.254 520.841 297.202 522.64 299.001C524.438 300.799 526.387 302.448 528.485 303.946C530.583 305.295 532.831 306.494 535.229 307.543C537.627 308.592 540.099 309.417 542.647 310.016C545.345 310.466 548.042 310.69 550.74 310.69C553.437 310.69 556.06 310.466 558.608 310.016C561.156 309.417 563.628 308.592 566.026 307.543C568.424 306.494 570.672 305.295 572.77 303.946C574.868 302.448 576.742 300.799 578.39 299.001C580.189 297.202 581.762 295.254 583.111 293.156C584.61 291.058 585.884 288.81 586.933 286.412C587.982 284.014 588.731 281.541 589.181 278.994C589.78 276.296 590.08 273.598 590.08 270.901C590.08 268.053 589.78 265.356 589.181 262.808C588.731 260.26 587.982 257.787 586.933 255.39C585.884 252.992 584.61 250.744 583.111 248.646C581.762 246.398 580.189 244.374 578.39 242.576C576.742 240.778 574.868 239.204 572.77 237.855C570.672 236.357 568.424 235.158 566.026 234.258C563.628 233.209 561.156 232.46 558.608 232.01C556.06 231.411 553.437 231.111 550.74 231.111C548.042 231.111 545.345 231.411 542.647 232.01C540.099 232.46 537.627 233.209 535.229 234.258C532.981 235.158 530.808 236.357 528.709 237.855C526.611 239.204 524.663 240.778 522.865 242.576C521.066 244.374 519.418 246.398 517.919 248.646C516.57 250.744 515.371 252.992 514.322 255.39C513.273 257.787 512.449 260.26 511.849 262.808C511.4 265.356 511.175 268.053 511.175 270.901Z" fill="white"/>
<path d="M620.407 270.676C620.407 267.079 620.707 263.557 621.306 260.11C621.905 256.663 622.805 253.366 624.004 250.219C625.203 246.922 626.626 243.85 628.275 241.002C629.923 238.005 631.797 235.233 633.895 232.685C635.993 229.987 638.316 227.514 640.864 225.266C643.411 223.018 646.109 221.07 648.956 219.422C651.954 217.623 655.026 216.125 658.173 214.926C661.47 213.727 664.842 212.827 668.289 212.228C671.886 211.479 675.558 211.104 679.304 211.104C683.051 211.104 686.573 211.404 689.87 212.003C693.317 212.603 696.614 213.502 699.761 214.701C703.058 215.9 706.056 217.323 708.753 218.972C711.601 220.621 714.223 222.569 716.621 224.817C719.169 226.915 721.492 229.238 723.59 231.786C725.688 234.333 727.487 237.106 728.985 240.103C730.634 242.951 731.983 246.023 733.032 249.32C734.231 252.617 735.13 256.064 735.729 259.661C736.329 263.258 736.628 266.929 736.628 270.676V278.094H643.336C644.835 287.386 649.106 295.179 656.15 301.474C663.344 307.618 671.736 310.69 681.328 310.69C687.922 310.69 693.991 309.342 699.536 306.644C705.231 303.797 710.177 299.525 714.373 293.83L730.784 305.97C725.089 313.613 717.97 319.607 709.428 323.954C701.035 328.3 691.668 330.473 681.328 330.473C677.581 330.473 673.834 330.173 670.088 329.574C666.491 328.974 663.044 328.075 659.747 326.876C656.45 325.677 653.303 324.253 650.305 322.605C647.308 320.956 644.46 319.083 641.763 316.985C639.065 314.737 636.592 312.339 634.344 309.791C632.246 307.094 630.298 304.321 628.5 301.474C626.851 298.476 625.352 295.329 624.004 292.032C622.805 288.735 621.905 285.288 621.306 281.691C620.707 278.094 620.407 274.423 620.407 270.676ZM678.855 230.886C670.462 230.886 662.969 233.584 656.375 238.979C649.931 244.374 645.734 251.418 643.786 260.11H713.699C711.751 251.418 707.554 244.374 701.11 238.979C694.666 233.584 687.247 230.886 678.855 230.886Z" fill="white"/>
<path d="M806.575 233.584H797.133C789.789 233.584 783.645 236.282 778.699 241.677C773.904 246.922 771.506 253.966 771.506 262.808V328H748.801V213.352H771.281V227.514C774.128 222.869 777.8 219.197 782.296 216.499C786.942 213.802 792.412 212.453 798.707 212.453H806.575V233.584Z" fill="white"/>
<path d="M851.628 249.32C851.628 244.824 851.927 240.403 852.527 236.057C853.276 231.711 854.325 227.514 855.674 223.468C857.173 219.422 858.896 215.525 860.844 211.778C862.793 208.032 864.966 204.51 867.364 201.213C869.911 197.766 872.684 194.619 875.681 191.771C878.679 188.774 881.901 186.076 885.348 183.678C888.795 181.131 892.391 178.883 896.138 176.934C899.885 174.986 903.856 173.338 908.052 171.989C912.249 170.64 916.52 169.666 920.866 169.066C925.362 168.317 929.933 167.942 934.579 167.942C939.225 167.942 943.721 168.317 948.067 169.066C952.563 169.666 956.834 170.64 960.88 171.989C965.077 173.338 969.048 174.986 972.795 176.934C976.691 178.883 980.288 181.131 983.585 183.678C987.032 186.076 990.254 188.774 993.252 191.771C996.249 194.619 998.947 197.766 1001.34 201.213C1003.89 204.51 1006.14 208.032 1008.09 211.778C1010.04 215.525 1011.69 219.422 1013.03 223.468C1014.53 227.514 1015.58 231.711 1016.18 236.057C1016.93 240.403 1017.31 244.824 1017.31 249.32C1017.31 253.816 1016.93 258.237 1016.18 262.583C1015.58 266.929 1014.53 271.126 1013.03 275.172C1011.69 279.218 1010.04 283.115 1008.09 286.862C1006.14 290.608 1003.89 294.205 1001.34 297.652C998.947 300.949 996.249 304.096 993.252 307.094C990.254 309.941 987.032 312.639 983.585 315.186C980.288 317.584 976.691 319.757 972.795 321.706C969.048 323.654 965.077 325.302 960.88 326.651C956.834 328 952.563 328.974 948.067 329.574C943.721 330.323 939.225 330.698 934.579 330.698C929.933 330.698 925.362 330.323 920.866 329.574C916.52 328.974 912.249 328 908.052 326.651C903.856 325.302 899.885 323.654 896.138 321.706C892.391 319.757 888.795 317.584 885.348 315.186C881.901 312.639 878.679 309.941 875.681 307.094C872.684 304.096 869.911 300.949 867.364 297.652C864.966 294.205 862.793 290.608 860.844 286.862C858.896 283.115 857.173 279.218 855.674 275.172C854.325 271.126 853.276 266.929 852.527 262.583C851.927 258.237 851.628 253.816 851.628 249.32ZM875.681 249.32C875.681 253.067 875.981 256.738 876.58 260.335C877.18 263.782 878.079 267.154 879.278 270.451C880.477 273.748 881.901 276.895 883.549 279.893C885.348 282.74 887.296 285.513 889.394 288.21C891.642 290.758 894.04 293.156 896.588 295.404C899.135 297.502 901.833 299.45 904.68 301.249C907.678 302.897 910.75 304.321 913.897 305.52C917.194 306.719 920.566 307.618 924.013 308.218C927.46 308.817 930.982 309.117 934.579 309.117C938.176 309.117 941.697 308.817 945.144 308.218C948.591 307.618 951.888 306.719 955.036 305.52C958.333 304.321 961.405 302.897 964.252 301.249C967.25 299.45 970.022 297.502 972.57 295.404C975.118 293.156 977.441 290.758 979.539 288.21C981.787 285.513 983.735 282.74 985.384 279.893C987.182 276.895 988.681 273.748 989.88 270.451C991.079 267.154 991.978 263.782 992.577 260.335C993.177 256.738 993.476 253.067 993.476 249.32C993.476 245.573 993.177 241.977 992.577 238.53C991.978 235.083 991.079 231.711 989.88 228.414C988.681 225.117 987.182 222.044 985.384 219.197C983.735 216.199 981.787 213.427 979.539 210.879C977.441 208.182 975.118 205.784 972.57 203.686C970.022 201.438 967.25 199.489 964.252 197.841C961.405 196.042 958.333 194.544 955.036 193.345C951.888 191.996 948.591 191.022 945.144 190.422C941.697 189.823 938.176 189.523 934.579 189.523C930.982 189.523 927.46 189.823 924.013 190.422C920.566 191.022 917.194 191.996 913.897 193.345C910.75 194.544 907.678 196.042 904.68 197.841C901.833 199.489 899.135 201.438 896.588 203.686C894.04 205.784 891.642 208.182 889.394 210.879C887.296 213.427 885.348 216.199 883.549 219.197C881.901 222.044 880.477 225.117 879.278 228.414C878.079 231.711 877.18 235.083 876.58 238.53C875.981 241.977 875.681 245.573 875.681 249.32Z" fill="white"/>
<path d="M1130.33 254.715V328H1107.63V259.211C1107.63 250.969 1105.15 244.299 1100.21 239.204C1095.26 233.959 1088.74 231.336 1080.65 231.336C1072.56 231.336 1065.81 233.959 1060.42 239.204C1055.17 244.449 1052.55 251.343 1052.55 259.886V328H1029.84V213.352H1052.55V225.941C1056.6 221.295 1061.47 217.623 1067.16 214.926C1073.01 212.228 1079.38 210.879 1086.27 210.879C1089.57 210.879 1092.71 211.179 1095.71 211.778C1098.71 212.378 1101.56 213.202 1104.25 214.251C1106.95 215.3 1109.42 216.649 1111.67 218.298C1114.07 219.796 1116.24 221.595 1118.19 223.693C1120.14 225.641 1121.86 227.814 1123.36 230.212C1124.86 232.46 1126.13 234.933 1127.18 237.63C1128.23 240.178 1128.98 242.951 1129.43 245.948C1130.03 248.795 1130.33 251.718 1130.33 254.715Z" fill="white"/>
<path d="M1142.45 270.676C1142.45 267.079 1142.75 263.557 1143.35 260.11C1143.95 256.663 1144.85 253.366 1146.05 250.219C1147.25 246.922 1148.67 243.85 1150.32 241.002C1151.97 238.005 1153.84 235.233 1155.94 232.685C1158.04 229.987 1160.36 227.514 1162.91 225.266C1165.46 223.018 1168.15 221.07 1171 219.422C1174 217.623 1177.07 216.125 1180.22 214.926C1183.52 213.727 1186.89 212.827 1190.33 212.228C1193.93 211.479 1197.6 211.104 1201.35 211.104C1205.1 211.104 1208.62 211.404 1211.92 212.003C1215.36 212.603 1218.66 213.502 1221.81 214.701C1225.1 215.9 1228.1 217.323 1230.8 218.972C1233.65 220.621 1236.27 222.569 1238.67 224.817C1241.21 226.915 1243.54 229.238 1245.64 231.786C1247.73 234.333 1249.53 237.106 1251.03 240.103C1252.68 242.951 1254.03 246.023 1255.08 249.32C1256.28 252.617 1257.18 256.064 1257.77 259.661C1258.37 263.258 1258.67 266.929 1258.67 270.676V278.094H1165.38C1166.88 287.386 1171.15 295.179 1178.2 301.474C1185.39 307.618 1193.78 310.69 1203.37 310.69C1209.97 310.69 1216.04 309.342 1221.58 306.644C1227.28 303.797 1232.22 299.525 1236.42 293.83L1252.83 305.97C1247.13 313.613 1240.02 319.607 1231.47 323.954C1223.08 328.3 1213.71 330.473 1203.37 330.473C1199.63 330.473 1195.88 330.173 1192.13 329.574C1188.54 328.974 1185.09 328.075 1181.79 326.876C1178.49 325.677 1175.35 324.253 1172.35 322.605C1169.35 320.956 1166.51 319.083 1163.81 316.985C1161.11 314.737 1158.64 312.339 1156.39 309.791C1154.29 307.094 1152.34 304.321 1150.54 301.474C1148.9 298.476 1147.4 295.329 1146.05 292.032C1144.85 288.735 1143.95 285.288 1143.35 281.691C1142.75 278.094 1142.45 274.423 1142.45 270.676ZM1200.9 230.886C1192.51 230.886 1185.01 233.584 1178.42 238.979C1171.98 244.374 1167.78 251.418 1165.83 260.11H1235.74C1233.8 251.418 1229.6 244.374 1223.16 238.979C1216.71 233.584 1209.29 230.886 1200.9 230.886Z" fill="white"/>
<path d="M1350.47 215.15H1461.75V229.987H1350.47V215.15ZM1312.7 266.405H1511.43V282.141H1312.7V266.405ZM1403.07 249.994H1420.38V325.977C1420.38 336.093 1417.68 341.038 1409.14 343.511C1401.05 345.984 1388.01 346.209 1367.55 346.209C1366.43 341.488 1363.06 334.519 1360.36 330.023C1377.67 330.473 1392.96 330.473 1397.45 330.248C1401.95 330.023 1403.07 328.899 1403.07 325.527V249.994ZM1456.57 215.15H1460.85L1464.44 214.251L1475.23 222.569C1459.95 238.08 1436.34 253.591 1414.99 262.808C1412.96 259.886 1408.47 255.39 1405.55 252.917C1424.43 244.824 1446.01 229.987 1456.57 218.522V215.15ZM1317.2 176.71H1507.6V226.84H1490.97V191.996H1333.16V226.84H1317.2V176.71ZM1477.93 140.742L1495.47 146.586C1486.02 160.524 1473.88 175.586 1464.44 185.477L1451.18 179.857C1460.17 169.291 1471.64 152.656 1477.93 140.742ZM1332.49 148.61L1346.65 141.866C1355.41 151.307 1364.63 164.121 1368.45 173.113L1353.39 180.306C1349.79 171.764 1340.8 158.276 1332.49 148.61ZM1390.26 143.664L1404.87 138.269C1412.51 148.834 1420.61 163.446 1423.3 172.888L1407.79 178.958C1405.1 169.516 1397.68 154.679 1390.26 143.664Z" fill="white"/>
<path d="M1565.15 183.004H1720.94V199.414H1565.15V183.004ZM1555.26 248.87H1712.85V265.056H1555.26V248.87ZM1530.76 322.38H1731.51V338.79H1530.76V322.38ZM1622.48 139.393H1639.79V330.698H1622.48V139.393ZM1571.9 142.99L1589.21 146.811C1579.32 181.655 1563.58 214.926 1545.6 236.506C1542.22 233.584 1534.58 228.638 1530.31 226.39C1548.74 206.383 1563.35 175.136 1571.9 142.99Z" fill="white"/>
<path d="M1918.54 166.594C1918.54 174.911 1925.06 181.43 1933.38 181.43C1941.47 181.43 1948.21 174.911 1948.21 166.594C1948.21 158.501 1941.47 151.757 1933.38 151.757C1925.06 151.757 1918.54 158.501 1918.54 166.594ZM1908.2 166.594C1908.2 152.656 1919.44 141.416 1933.38 141.416C1947.31 141.416 1958.55 152.656 1958.55 166.594C1958.55 180.531 1947.31 191.771 1933.38 191.771C1919.44 191.771 1908.2 180.531 1908.2 166.594ZM1927.76 181.655C1926.18 184.802 1925.28 188.624 1924.38 192.895C1919.44 216.499 1908.65 252.917 1890.66 275.846C1870.21 302.373 1843.46 323.054 1802.32 336.093L1787.03 319.233C1830.64 308.218 1855.82 289.11 1874.7 265.056C1890.66 244.824 1901 213.352 1904.15 191.771C1891.11 191.771 1802.09 191.771 1789.05 191.771C1780.06 191.771 1772.42 192.221 1766.8 192.67V172.663C1772.87 173.338 1781.86 174.237 1789.28 174.237C1802.09 174.237 1891.79 174.237 1901.9 174.237C1905.5 174.237 1909.77 174.012 1914.04 172.888L1927.76 181.655Z" fill="white"/>
<path d="M2008.68 160.749C2014.53 161.423 2021.5 161.873 2028.69 161.873C2040.83 161.873 2104 161.873 2117.26 161.873C2124.23 161.873 2132.1 161.423 2137.49 160.749V179.407C2132.32 178.958 2124.46 178.733 2116.81 178.733C2104.22 178.733 2041.06 178.733 2028.69 178.733C2021.95 178.733 2014.75 178.958 2008.68 179.407V160.749ZM2154.13 219.871C2153.01 222.119 2151.43 224.817 2150.98 226.615C2145.14 248.646 2135.02 272.025 2118.16 290.458C2094.78 316.31 2066.46 329.349 2037.91 337.442L2023.97 321.481C2055.67 314.962 2083.77 300.35 2103.1 280.118C2116.59 265.955 2125.58 246.847 2129.63 230.437C2118.61 230.437 2023.97 230.437 2010.48 230.437C2005.09 230.437 1996.54 230.662 1988.45 231.336V212.453C1996.54 213.127 2004.19 213.802 2010.48 213.802C2021.5 213.802 2117.26 213.802 2128.73 213.802C2133.9 213.802 2138.84 213.127 2141.32 212.003L2154.13 219.871Z" fill="white"/>
<path d="M2226.96 163.446C2242.7 174.012 2271.7 197.391 2284.06 209.755L2270.13 224.142C2258.66 212.453 2230.79 188.174 2213.93 177.159L2226.96 163.446ZM2207.63 314.062C2246.75 308.218 2275.97 294.505 2297.33 281.242C2332.17 259.436 2359.37 226.166 2372.41 198.29L2383.2 217.623C2367.91 245.498 2341.84 276.071 2307.89 297.427C2285.19 311.59 2256.86 325.527 2219.32 332.496L2207.63 314.062Z" fill="white"/>
</svg>
